<svg xmlns="http://www.w3.org/2000/svg" viewBox="0 0 128 96">
  <defs>
    <clipPath id="cloudClip">
      <circle cx="32" cy="60" r="19"/>
      <circle cx="60" cy="44" r="27"/>
      <circle cx="92" cy="58" r="21"/>
      <rect x="16" y="58" width="96" height="26" rx="13"/>
    </clipPath>
    <linearGradient id="chromeV" x1="0" y1="14" x2="0" y2="88" gradientUnits="userSpaceOnUse">
      <stop offset="0" stop-color="#ffffff"/>
      <stop offset="0.20" stop-color="#f0f5fd"/>
      <stop offset="0.40" stop-color="#c2d0e8"/>
      <stop offset="0.48" stop-color="#8195bb"/>
      <stop offset="0.51" stop-color="#3b4d70"/>
      <stop offset="0.56" stop-color="#93a9ca"/>
      <stop offset="0.72" stop-color="#e2ebf7"/>
      <stop offset="0.88" stop-color="#c3d2e8"/>
      <stop offset="1" stop-color="#f2f7fe"/>
    </linearGradient>
    <linearGradient id="rimGrad" x1="0" y1="14" x2="0" y2="88" gradientUnits="userSpaceOnUse">
      <stop offset="0" stop-color="#aebfda"/>
      <stop offset="0.5" stop-color="#5a6f96"/>
      <stop offset="1" stop-color="#2f4166"/>
    </linearGradient>
    <radialGradient id="sheenBig" cx="0.30" cy="0.14" r="0.55">
      <stop offset="0" stop-color="#ffffff" stop-opacity="0.7"/>
      <stop offset="0.4" stop-color="#ffffff" stop-opacity="0.22"/>
      <stop offset="1" stop-color="#ffffff" stop-opacity="0"/>
    </radialGradient>
  </defs>
  <g stroke="url(#rimGrad)" stroke-width="2.4" fill="url(#rimGrad)" opacity="0.9">
    <circle cx="32" cy="60" r="19"/>
    <circle cx="60" cy="44" r="27"/>
    <circle cx="92" cy="58" r="21"/>
    <rect x="16" y="58" width="96" height="26" rx="13"/>
  </g>
  <g clip-path="url(#cloudClip)">
    <rect x="0" y="0" width="128" height="96" fill="url(#chromeV)"/>
    <rect x="0" y="0" width="128" height="96" fill="url(#sheenBig)"/>
    <ellipse cx="64" cy="86" rx="52" ry="10" fill="#3c4f74" opacity="0.35"/>
    <ellipse cx="64" cy="91" rx="40" ry="6" fill="#ffffff" opacity="0.55"/>
  </g>
  <ellipse cx="45" cy="27" rx="17" ry="7.5" fill="#fff" opacity="0.95" transform="rotate(-12 45 27)"/>
  <circle cx="90" cy="44" r="5" fill="#fff" opacity="0.9"/>
</svg>
